<svg width="33" height="33" viewBox="0 0 33 33" fill="none" xmlns="http://www.w3.org/2000/svg">
<path d="M9.66397 0.100098C4.39001 0.100098 0.0999756 4.3941 0.0999756 9.66943V23.3361C0.0999756 28.6101 4.39398 32.9001 9.66931 32.9001H23.336C28.6099 32.9001 32.9 28.6061 32.9 23.3308V9.66409C32.9 4.39013 28.606 0.100098 23.3306 0.100098H9.66397ZM26.0666 5.56676C26.821 5.56676 27.4333 6.17903 27.4333 6.93343C27.4333 7.68783 26.821 8.3001 26.0666 8.3001C25.3122 8.3001 24.7 7.68783 24.7 6.93343C24.7 6.17903 25.3122 5.56676 26.0666 5.56676ZM16.5 8.3001C21.0223 8.3001 24.7 11.9778 24.7 16.5001C24.7 21.0224 21.0223 24.7001 16.5 24.7001C11.9777 24.7001 8.29998 21.0224 8.29998 16.5001C8.29998 11.9778 11.9777 8.3001 16.5 8.3001ZM16.5 11.0334C15.0501 11.0334 13.6597 11.6094 12.6345 12.6346C11.6093 13.6598 11.0333 15.0502 11.0333 16.5001C11.0333 17.9499 11.6093 19.3404 12.6345 20.3656C13.6597 21.3908 15.0501 21.9668 16.5 21.9668C17.9498 21.9668 19.3403 21.3908 20.3655 20.3656C21.3907 19.3404 21.9666 17.9499 21.9666 16.5001C21.9666 15.0502 21.3907 13.6598 20.3655 12.6346C19.3403 11.6094 17.9498 11.0334 16.5 11.0334Z" fill="#FFF9F9"/>
</svg>
